<svg width="617" height="809" viewBox="0 0 617 809" fill="none" xmlns="http://www.w3.org/2000/svg">
<path d="M313.5 808L507.5 3.5M507.5 3.5L217.5 808M507.5 3.5L126.5 808M507.5 3.5L407 808M507.5 3.5L522.5 808M507.5 3.5L616 808M507.5 3.5L11 808" stroke="white" stroke-width="2"/>
<path d="M488.526 296.2C472.918 419.627 374.567 518 247 518C111.138 518 1 407.862 1 272C1 136.138 111.138 26 247 26C309.873 26 341.524 71.8443 369.345 124.767C373.634 132.925 377.834 141.254 382.042 149.602C391.445 168.253 400.892 186.992 411.482 204.105C426.827 228.901 444.664 250.45 468.469 263.618C480.815 270.447 490.25 282.566 488.526 296.2Z" stroke="white" stroke-width="2"/>
</svg>
